<?xml version="1.0" encoding="UTF-8" standalone="no"?>
<svg
   xmlns:osb="http://www.openswatchbook.org/uri/2009/osb"
   xmlns:dc="http://purl.org/dc/elements/1.1/"
   xmlns:cc="http://creativecommons.org/ns#"
   xmlns:rdf="http://www.w3.org/1999/02/22-rdf-syntax-ns#"
   xmlns:svg="http://www.w3.org/2000/svg"
   xmlns="http://www.w3.org/2000/svg"
   id="svg8"
   version="1.1"
   viewBox="0 0 163.31548 206.78274"
   height="206.78275mm"
   width="163.31548mm">
  <defs
     id="defs2">
    <linearGradient
       osb:paint="solid"
       id="linearGradient4538">
      <stop
         id="stop4536"
         offset="0"
         style="stop-color:#000000;stop-opacity:1;" />
    </linearGradient>
    <linearGradient
       osb:paint="solid"
       id="linearGradient4532">
      <stop
         id="stop4530"
         offset="0"
         style="stop-color:#000000;stop-opacity:1;" />
    </linearGradient>
  </defs>
  <metadata
     id="metadata5">
    <rdf:RDF>
      <cc:Work
         rdf:about="">
        <dc:format>image/svg+xml</dc:format>
        <dc:type
           rdf:resource="http://purl.org/dc/dcmitype/StillImage" />
        <dc:title></dc:title>
      </cc:Work>
    </rdf:RDF>
  </metadata>
  <g
     transform="translate(-24.55357,-41.704262)"
     id="layer1">
    <path
       id="path3387"
       d="m 45.089149,100.42443 3.811536,1.578 v -5.361958 l 3.812338,1.57704 v 5.366288 l 7.623874,3.15904 -0.0016,5.36498 3.811536,1.57946 -0.0016,-16.092638 3.81604,1.5743 -0.0068,10.730008 3.814638,1.57982 6.74e-4,-5.36181 3.81213,1.57614 0.0026,10.73348 3.808325,1.57827 0.01553,-5.35984 3.795997,1.57458 v 5.36487 l 3.811536,1.57944 v -5.36564 l 3.811537,1.5828 -0.0022,-5.37101 3.815444,1.58106 -0.0018,5.36663 7.625586,3.15784 -0.002,-5.36635 3.81153,1.57914 V 109.59643 L 45.131314,84.342342 Z"
       style="fill:#646464;fill-opacity:1;stroke:#646464;stroke-width:0.21732755px;stroke-linecap:butt;stroke-linejoin:miter;stroke-opacity:1" />
    <path
       id="path3393"
       d="m 48.897662,96.641592 v 5.359708 l -3.80843,-1.57832 v 69.76169 l 60.983978,25.25968 v -75.11482 l -3.80843,-1.57832 v 5.36629 l -7.623873,-3.15664 V 115.588 l -3.815444,-1.57174 v 5.36628 l -3.80843,-1.58489 v 5.36628 l -3.815444,-1.57832 v -5.36629 l -3.80843,-1.57831 v 5.36628 l -3.808431,-1.57832 V 107.6964 l -3.815443,-1.57832 v 5.35971 l -3.815444,-1.57833 0.007,-10.732558 -3.815445,-1.57832 v 16.098858 l -3.808419,-1.57833 v -5.36629 l -7.623912,-3.15662 v -5.366288 z"
       style="fill:#1e1e1e;fill-opacity:1;stroke:#1e1e1e;stroke-width:0.21732755px;stroke-linecap:butt;stroke-linejoin:miter;stroke-opacity:1" />
    <path
       id="path3395"
       d="M 45.131314,84.342342 106.07236,109.59588 167.00563,84.344442 106.06534,59.089689 Z"
       style="fill:#5a5a5a;fill-opacity:1;stroke:#5a5a5a;stroke-width:0.21732755;stroke-linecap:butt;stroke-linejoin:miter;stroke-miterlimit:4;stroke-dasharray:none;stroke-opacity:1" />
    <path
       id="path3416"
       d="m 167.04022,95.063522 -3.81545,1.57832 0.0164,5.359458 -7.62387,3.16321 -0.0164,-5.359498 -3.79209,1.571578 6.8e-4,5.36485 -3.81545,1.58108 -6.7e-4,5.36517 -3.80783,1.57781 -6.7e-4,-5.36578 -3.81103,1.58047 -0.0449,5.38187 -3.76797,1.56058 6.7e-4,-10.73282 -3.81084,1.58589 0.002,5.36265 -3.66365,1.51818 -0.14693,-10.66979 -3.81269,1.57807 -0.002,16.09785 -3.81154,1.57944 -0.003,-5.36615 -7.62387,3.16065 v -5.36371 l -3.80844,1.57831 v 5.36356 l -3.80843,1.57816 v 69.75142 l 60.98338,-25.26625 z"
       style="fill:#141414;fill-opacity:1;stroke:#141414;stroke-width:0.21732755px;stroke-linecap:butt;stroke-linejoin:miter;stroke-opacity:1" />
    <path
       id="path3418"
       d="m 167.00563,84.344442 0.0346,10.71908 -3.81545,1.57832 0.0164,5.359458 -7.62388,3.16321 -0.0164,-5.359498 -3.79208,1.571578 6.8e-4,5.36485 -3.81545,1.58108 -6.7e-4,5.36517 -3.80783,1.57781 -6.7e-4,-5.36578 -3.81104,1.58047 -0.0449,5.38187 -3.76798,1.56058 6.8e-4,-10.73282 -3.81084,1.58589 0.002,5.36265 -3.66365,1.51818 -0.14693,-10.66979 -3.81269,1.57807 -0.002,16.09785 -3.81153,1.57944 -0.003,-5.36615 -7.62387,3.16065 v -5.36371 l -3.80843,1.57831 v 5.36356 l -3.80844,1.57816 -8.4e-4,-16.09705 z"
       style="fill:#3c3c3c;fill-opacity:1;stroke:#3c3c3c;stroke-width:0.21732755px;stroke-linecap:butt;stroke-linejoin:miter;stroke-opacity:1" />
  </g>
</svg>
