<?xml version="1.0" encoding="UTF-8" standalone="no" ?>
<!-- Generator: Adobe Illustrator 16.0.0, SVG Export Plug-In . SVG Version: 6.00 Build 0)  -->
<svg
  version="1.1"
  id="Capa_1"
  x="0px"
  y="0px"
  width="960.75275"
  height="1160.6902"
  viewBox="0 0 960.75277 1160.6902"
  xml:space="preserve"
  sodipodi:docname="cloud.svg"
  inkscape:version="1.1.1 (3bf5ae0d25, 2021-09-20)"
  xmlns:inkscape="http://www.inkscape.org/namespaces/inkscape"
  xmlns:sodipodi="http://sodipodi.sourceforge.net/DTD/sodipodi-0.dtd"
  xmlns="http://www.w3.org/2000/svg"
  xmlns:svg="http://www.w3.org/2000/svg"
><defs id="defs9" /><sodipodi:namedview
    id="namedview7"
    pagecolor="#ffffff"
    bordercolor="#666666"
    borderopacity="1.0"
    inkscape:pageshadow="2"
    inkscape:pageopacity="0.0"
    inkscape:pagecheckerboard="0"
    showgrid="false"
    inkscape:zoom="0.30562242"
    inkscape:cx="634.77019"
    inkscape:cy="683.85036"
    inkscape:window-width="1262"
    inkscape:window-height="1376"
    inkscape:window-x="3206"
    inkscape:window-y="52"
    inkscape:window-maximized="1"
    inkscape:current-layer="Capa_1"
  />
<g id="g4" transform="translate(3.0289657,-145.04951)">
	<path
      d="m 782.699,413.199 c -0.199,0 -0.299,0 -0.5,0 -7.699,-121.7 -108.898,-218 -232.5,-218 -114.099,0 -209,82 -229.099,190.2 -2.601,-0.1 -5.3,-0.2 -7.9,-0.2 -85,0 -156.7,56.3 -180.1,133.6 -3.6,-0.299 -7.3,-0.5 -11,-0.5 C 54.5,518.299 0,572.699 0,639.899 0,707.1 54.4,761.5 121.5,761.5 c 1,0 661.1,0 661.1,0 96.201,0 174.1,-78 174.1,-174.102 -0.001,-96.099 -77.8,-174.199 -174.001,-174.199 z"
      id="path2"
    />
</g>
</svg>
