<?xml version="1.0" encoding="UTF-8" standalone="no"?>
<svg
   xmlns:dc="http://purl.org/dc/elements/1.1/"
   xmlns:cc="http://creativecommons.org/ns#"
   xmlns:rdf="http://www.w3.org/1999/02/22-rdf-syntax-ns#"
   xmlns:svg="http://www.w3.org/2000/svg"
   xmlns="http://www.w3.org/2000/svg"
   xmlns:xlink="http://www.w3.org/1999/xlink"
   version="1.0"
   id="svg2"
   height="511.22034"
   width="444.00003">
  <defs
     id="defs4">
    <linearGradient
       id="linearGradient3273">
      <stop
         id="stop3275"
         offset="0"
         style="stop-color:#6c6c6c" />
      <stop
         id="stop3277"
         offset="1"
         style="stop-color:#3e3e3e" />
    </linearGradient>
    <linearGradient
       id="linearGradient3263">
      <stop
         id="stop3265"
         offset="0"
         style="stop-color:#f7f7f7" />
      <stop
         id="stop3267"
         offset="1"
         style="stop-color:#e1e1e1" />
    </linearGradient>
    <linearGradient
       id="linearGradient3153">
      <stop
         id="stop3155"
         offset="0"
         style="stop-color:#ffffff" />
      <stop
         id="stop3157"
         offset="1"
         style="stop-color:#ffffff;stop-opacity:0" />
    </linearGradient>
    <filter
       id="filter3315">
      <feGaussianBlur
         id="feGaussianBlur3317"
         stdDeviation="3.7" />
    </filter>
    <radialGradient
       r="92.5"
       fy="209.66924"
       fx="289.42923"
       cy="209.66924"
       cx="289.42923"
       gradientTransform="matrix(-0.8695893,0.8695893,-1.9614862,-1.9614862,681.5104,178.1413)"
       gradientUnits="userSpaceOnUse"
       id="radialGradient3328"
       xlink:href="#linearGradient3153" />
    <radialGradient
       r="53.6875"
       fy="192.84375"
       fx="199.28125"
       cy="192.84375"
       cx="199.28125"
       gradientTransform="matrix(0,2.8728591,-1,0,412.12946,-354.50696)"
       gradientUnits="userSpaceOnUse"
       id="radialGradient3349"
       xlink:href="#linearGradient3263" />
    <radialGradient
       r="68.84375"
       fy="192.84375"
       fx="199.28125"
       cy="192.84375"
       cx="199.28125"
       gradientTransform="matrix(0,2.7782148,-0.82387859,0,358.87983,-353.64609)"
       gradientUnits="userSpaceOnUse"
       id="radialGradient3352"
       xlink:href="#linearGradient3273" />
    <radialGradient
       r="92.5"
       fy="209.66924"
       fx="289.42923"
       cy="209.66924"
       cx="289.42923"
       gradientTransform="matrix(-0.8695893,0.8695893,-1.9614862,-1.9614862,700.79611,196.1413)"
       gradientUnits="userSpaceOnUse"
       id="radialGradient840"
       xlink:href="#linearGradient3153" />
  </defs>
  <metadata
     id="metadata7">
    <rdf:RDF>
      <cc:Work
         rdf:about="">
        <dc:format>image/svg+xml</dc:format>
        <dc:type
           rdf:resource="http://purl.org/dc/dcmitype/StillImage" />
        <dc:title></dc:title>
      </cc:Work>
    </rdf:RDF>
  </metadata>
  <use
     style="fill-opacity:0.5;filter:url(#filter3315)"
     height="100%"
     width="100%"
     transform="translate(2.71429,4)"
     id="use31"
     xlink:href="#path3191"
     y="0"
     x="0" />
  <path
     d="m 219.28571,33 c -102.12,0 -185,82.88 -185,185 0,102.12 82.88,185 185,185 102.12,0 185,-82.88 185,-185 0,-102.12 -82.88,-185 -185,-185 z m 0,179.8125 c 2.86645,0 5.18749,2.32105 5.1875,5.1875 0,2.86645 -2.32105,5.18749 -5.1875,5.1875 -2.86645,0 -5.18749,-2.32105 -5.1875,-5.1875 0,-2.86645 2.32105,-5.18749 5.1875,-5.1875 z"
     id="path3191" />
  <path
     style="fill:#333333"
     d="m 219.28571,150.65625 c -37.15925,0 -67.34375,30.1845 -67.34375,67.34375 0,37.15925 30.1845,67.34375 67.34375,67.34375 37.15925,0 67.34375,-30.1845 67.34375,-67.34375 0,-37.15925 -30.1845,-67.34375 -67.34375,-67.34375 z m 0,62.90625 c 2.45408,0 4.4375,1.98342 4.4375,4.4375 0,2.45408 -1.98342,4.4375 -4.4375,4.4375 -2.45408,0 -4.4375,-1.98342 -4.4375,-4.4375 0,-2.45408 1.98342,-4.4375 4.4375,-4.4375 z"
     id="path3271" />
  <path
     style="fill:none;stroke:#000000;stroke-width:3.56200004"
     d="m 219.28571,34.78125 c 101.15637,0 183.21875,82.06238 183.21875,183.21875 2e-5,101.15637 -82.06238,183.21875 -183.21875,183.21875 -101.15637,0 -183.21875,-82.06238 -183.21875,-183.21875 0,-101.15637 82.06238,-183.21875 183.21875,-183.21875 z"
     id="path3176" />
  <use
     x="0"
     y="0"
     xlink:href="#path3193"
     id="use3151"
     transform="rotate(180,219.2857,218)"
     width="100%"
     height="100%" />
  <path
     style="fill:url(#radialGradient840)"
     d="m 125.72321,218 c 0,-51.65143 41.91107,-93.59375 93.5625,-93.59375 V 36.5625 C 119.13714,36.5625 37.8482,117.85142 37.84821,218 Z"
     id="path3193" />
  <path
     style="fill:none;stroke:#000000;stroke-width:3"
     d="m 219.28571,150.6875 c 37.16701,0 67.3125,30.14548 67.3125,67.3125 0,37.16701 -30.14549,67.31445 -67.3125,67.31445 -37.16701,0 -67.31445,-30.14744 -67.31445,-67.31445 0,-37.16702 30.14744,-67.3125 67.31445,-67.3125 z"
     id="path3215" />
  <path
     style="fill:url(#radialGradient3349)"
     d="m 257.24851,180.03721 c -20.95262,-20.9526 -54.97299,-20.95261 -75.9256,0 -20.9526,20.95262 -20.9526,54.97299 0,75.92559 20.95262,20.9526 54.97299,20.95261 75.9256,0 20.9526,-20.95261 20.9526,-54.97298 0,-75.92559 z m -34.29468,34.29468 c 2.02688,2.02689 2.02688,5.30934 0,7.33623 -2.02689,2.02689 -5.30934,2.02688 -7.33624,0 -2.02688,-2.02688 -2.02688,-5.30934 0,-7.33623 2.02689,-2.02688 5.30934,-2.02688 7.33624,0 z"
     id="path3223" />
  <path
     style="opacity:0.7425743;fill:#ffffff"
     d="m 263.23682,174.0489 c -7.06177,-7.06176 -15.40617,-12.05335 -24.2847,-15.00392 l -1.23744,3.71231 c 8.31532,2.76444 16.12455,7.46249 22.7379,14.07584 8.05626,8.05626 13.25594,17.88433 15.60055,28.24008 l 3.82279,-0.86178 c -2.50205,-11.05558 -8.03761,-21.56103 -16.6391,-30.16253 z"
     id="path3230" />
  <path
     style="opacity:0.7425743;fill:#ffffff"
     d="m 161.89957,208.25519 -3.88908,-0.66291 c -3.23715,19.17313 2.53847,39.5732 17.32411,54.35884 14.74595,14.74593 35.07597,20.5264 54.20416,17.34621 l -0.64082,-3.86699 c -17.92511,2.98388 -36.96183,-2.44619 -50.7791,-16.26346 -13.85228,-13.85228 -19.25338,-32.94694 -16.21927,-50.91169 z"
     id="path3232" />
</svg>
